<?xml version="1.0" standalone="no"?>
<!DOCTYPE svg PUBLIC "-//W3C//DTD SVG 20010904//EN"
 "http://www.w3.org/TR/2001/REC-SVG-20010904/DTD/svg10.dtd">
<svg version="1.0" xmlns="http://www.w3.org/2000/svg"
 width="474.000000pt" height="476.000000pt" viewBox="0 0 474.000000 476.000000"
 preserveAspectRatio="xMidYMid meet">

<g transform="translate(0.000000,476.000000) scale(0.100000,-0.100000)"
fill="#000000" stroke="none">
<path d="M2015 4078 c-38 -5 -88 -10 -110 -11 -22 -1 -44 -5 -50 -9 -5 -3 -37
-11 -70 -18 -106 -21 -129 -27 -215 -59 -130 -48 -299 -151 -439 -266 -34 -27
-61 -58 -61 -67 0 -30 25 -20 35 14 17 56 33 45 37 -26 3 -59 1 -66 -16 -66
-11 0 -16 5 -13 13 3 8 1 20 -4 28 -7 11 -10 9 -15 -8 -8 -31 -30 -29 -38 2
-9 36 -29 32 -24 -5 3 -19 0 -30 -8 -30 -7 0 -10 9 -7 23 7 32 -131 -114 -206
-220 -68 -96 -79 -124 -63 -165 9 -23 8 -28 -6 -28 -12 0 -13 -3 -4 -12 8 -8
12 -50 12 -125 0 -100 -2 -115 -20 -133 -11 -11 -20 -24 -20 -28 0 -23 -28
-62 -45 -63 -17 -1 -17 -2 -3 -6 10 -2 18 -8 18 -11 -1 -14 -27 -41 -33 -35
-4 3 -7 -3 -7 -15 0 -13 -6 -22 -15 -22 -8 0 -15 -4 -15 -10 0 -5 5 -10 12
-10 7 0 6 -6 -4 -17 -9 -10 -13 -24 -11 -31 3 -8 -1 -10 -11 -6 -11 4 -16 1
-16 -10 0 -9 6 -16 13 -16 8 0 8 -3 1 -8 -5 -4 -18 -33 -28 -64 -10 -32 -23
-58 -29 -58 -9 0 -9 -2 0 -8 7 -4 9 -13 4 -21 -5 -7 -14 -10 -20 -7 -6 4 -11
3 -11 -3 0 -5 6 -12 13 -14 8 -4 9 -8 1 -14 -6 -4 -14 -15 -18 -23 -4 -8 -13
-26 -21 -40 -30 -51 -13 -318 31 -500 67 -273 198 -530 385 -755 211 -252 499
-446 824 -554 191 -64 295 -82 497 -88 166 -5 176 -4 181 13 4 17 5 17 6 2 0
-10 9 -18 19 -18 15 0 18 11 20 66 2 38 -1 71 -8 79 -15 19 -2 68 17 61 8 -3
21 -6 29 -6 8 0 22 -16 30 -35 16 -39 18 -57 4 -35 -6 10 -9 -1 -7 -37 1 -28
5 -49 10 -46 4 2 7 -5 7 -17 0 -18 4 -20 43 -14 224 33 512 138 667 244 13 9
13 11 0 20 -10 6 -11 10 -2 10 6 0 12 8 12 17 0 13 -3 14 -12 5 -9 -9 -18 -5
-40 19 -15 16 -28 36 -28 42 0 7 -16 21 -35 31 -19 10 -32 23 -29 27 3 5 -2
16 -10 24 -9 9 -12 23 -9 33 6 15 5 15 -12 -1 -12 -13 -20 -15 -25 -7 -4 6
-22 19 -41 29 -19 10 -33 25 -32 32 2 8 -9 19 -22 26 -14 6 -25 7 -25 3 0 -5
6 -10 13 -13 6 -2 9 -7 6 -11 -4 -4 -20 4 -35 18 -24 21 -27 28 -17 43 6 10
17 17 24 15 17 -4 29 19 22 45 -4 17 -1 23 11 23 9 0 16 -5 16 -12 0 -6 3 -8
6 -5 4 4 1 14 -6 22 -11 13 -11 23 -1 50 6 19 9 50 5 73 -5 33 -3 42 16 55 15
11 18 16 8 20 -8 4 -5 8 10 12 12 4 22 14 22 21 0 8 8 14 19 14 10 0 25 7 32
17 13 15 12 15 -8 5 -26 -14 -40 0 -18 18 8 7 15 23 15 37 0 14 4 21 10 18 6
-3 10 4 9 17 0 13 -3 17 -6 11 -8 -22 -23 -14 -23 12 0 14 -4 25 -10 25 -5 0
-10 5 -10 10 0 6 6 10 14 10 8 0 14 6 13 13 0 6 1 23 2 37 1 20 3 22 11 10 8
-13 10 -12 15 1 3 9 5 20 3 25 -5 17 23 54 40 54 14 0 15 2 2 10 -12 8 -12 11
2 27 25 29 27 71 7 113 -11 22 -19 46 -19 55 0 8 -4 15 -10 15 -5 0 -10 7 -10
16 0 10 -6 14 -15 10 -9 -3 -15 0 -15 9 0 20 -48 107 -71 127 -25 21 -24 54 1
75 11 10 20 23 20 30 0 12 12 17 31 15 4 -1 4 8 1 20 -4 16 -2 20 10 16 11 -5
14 0 10 19 -3 17 -1 24 6 19 7 -4 8 3 1 26 -10 36 0 48 39 48 13 0 20 4 17 10
-11 18 5 32 21 19 8 -6 17 -9 21 -5 3 3 1 6 -5 6 -6 0 -9 7 -6 15 4 8 10 13
14 10 12 -8 43 33 37 50 -7 16 -42 21 -52 6 -7 -13 -65 -11 -65 2 0 5 -6 4
-14 -2 -11 -9 -15 -8 -20 5 -10 25 -7 94 4 94 6 0 10 5 10 11 0 5 -4 7 -10 4
-15 -9 -12 0 9 23 10 12 25 22 32 22 10 1 9 4 -3 11 -11 6 -15 16 -11 26 5 13
2 15 -11 10 -13 -5 -19 -1 -23 13 -3 11 -11 19 -17 18 -6 -2 -11 0 -11 3 0 17
-41 49 -64 50 -14 0 -20 3 -13 6 10 4 10 8 1 19 -9 11 -6 14 18 14 16 0 33 -4
39 -8 5 -4 36 -16 69 -27 33 -10 67 -25 76 -32 8 -7 23 -13 31 -13 9 0 37 -9
63 -20 47 -20 101 -27 91 -12 -7 12 6 26 37 39 15 7 27 21 27 31 0 10 5 23 11
29 15 15 7 58 -11 59 -27 2 -50 16 -43 27 4 6 0 8 -10 4 -15 -6 -33 18 -19 26
4 2 1 2 -6 1 -7 -2 -31 8 -53 23 -33 21 -37 28 -27 41 11 13 8 14 -17 8 -23
-5 -38 -1 -65 19 -18 14 -40 25 -48 25 -8 0 -25 9 -39 20 -14 11 -31 20 -38
20 -16 0 -73 29 -81 41 -4 6 -11 6 -19 -1 -11 -9 -15 -7 -19 12 -21 98 -26
139 -26 213 0 46 -5 96 -12 110 -9 19 -9 31 -1 44 8 13 7 22 -3 36 -8 10 -13
41 -13 69 1 28 -3 62 -9 76 -5 14 -7 31 -5 37 3 7 -3 20 -11 29 -9 8 -19 33
-22 55 -4 21 -10 39 -15 39 -5 0 -21 18 -35 40 -15 22 -30 40 -34 40 -4 0 -24
16 -44 35 -21 19 -48 38 -62 41 -13 3 -24 12 -24 20 0 8 -9 14 -20 14 -12 0
-40 9 -63 20 -35 18 -68 22 -197 26 -85 2 -177 6 -205 7 -27 2 -81 -1 -120 -5z
m-675 -404 c0 -19 4 -24 18 -20 13 4 23 -6 40 -39 22 -44 22 -45 2 -45 -11 0
-20 6 -20 14 0 7 -6 19 -14 25 -11 9 -15 8 -20 -5 -3 -9 -4 -20 0 -25 3 -5 -4
-9 -14 -9 -18 0 -19 6 -17 63 3 71 2 67 15 67 6 0 10 -12 10 -26z m52 4 c-7
-7 -12 -8 -12 -2 0 14 12 26 19 19 2 -3 -1 -11 -7 -17z m90 -1 c-1 -9 7 -21
18 -27 26 -14 26 -26 -1 -33 -16 -4 -19 -11 -14 -26 5 -16 2 -21 -12 -21 -16
0 -18 8 -16 62 1 35 2 65 3 66 0 2 6 2 13 -1 6 -2 11 -11 9 -20z m186 -2 c7
-14 12 -33 12 -41 0 -27 22 -9 34 26 6 20 18 35 26 35 12 0 15 -14 16 -62 0
-55 -2 -63 -19 -63 -14 0 -17 5 -12 19 10 31 -14 35 -26 4 l-11 -28 -18 39
c-11 21 -24 44 -31 52 -12 14 -6 44 9 44 5 0 14 -11 20 -25z m162 6 c0 -10 7
-21 15 -25 20 -7 19 -33 -2 -44 -10 -6 -14 -16 -10 -26 5 -11 1 -16 -13 -16
-18 0 -20 7 -20 65 0 51 3 65 15 65 8 0 15 -9 15 -19z m133 -17 c5 -16 16 -36
24 -45 13 -15 9 -49 -6 -49 -5 0 -14 18 -21 40 -15 47 -35 42 -27 -6 3 -19 2
-34 -4 -34 -10 0 -13 113 -2 124 12 12 27 0 36 -30z m85 -32 c2 -48 0 -62 -11
-62 -10 0 -16 17 -20 57 -6 60 -2 76 16 70 7 -2 13 -30 15 -65z m74 45 c-1 -9
7 -21 18 -27 23 -12 27 -30 6 -30 -22 0 -30 -19 -16 -35 10 -13 8 -15 -12 -15
-23 0 -25 4 -27 56 -1 30 1 60 5 65 9 15 29 4 26 -14z m388 -42 c0 -48 -4 -65
-13 -65 -10 0 -14 17 -16 56 -2 56 3 74 20 74 5 0 9 -29 9 -65z m106 18 c24
-26 44 -53 44 -60 0 -23 -29 -14 -47 15 -10 15 -26 33 -35 40 -17 12 -26 52
-12 52 4 0 26 -21 50 -47z m-1363 0 c26 -62 30 -83 15 -83 -13 0 -38 43 -38
66 0 7 -5 14 -12 16 -13 5 -4 38 10 38 5 0 16 -17 25 -37z m287 27 c0 -5 -2
-10 -4 -10 -3 0 -8 5 -11 10 -3 6 -1 10 4 10 6 0 11 -4 11 -10z m702 -35 c-3
-26 1 -52 8 -60 17 -20 -4 -20 -24 0 -25 25 -29 54 -12 80 24 36 32 31 28 -20z
m68 30 c0 -8 -4 -15 -9 -15 -5 0 -11 7 -15 15 -3 9 0 15 9 15 8 0 15 -7 15
-15z m50 -42 c-1 -53 -2 -56 -15 -39 -18 24 -19 50 -3 76 7 11 14 20 15 20 2
0 3 -26 3 -57z m410 42 c0 -8 -2 -15 -4 -15 -2 0 -6 7 -10 15 -3 8 -1 15 4 15
6 0 10 -7 10 -15z m-324 -20 c9 -35 -3 -75 -22 -75 -11 0 -14 5 -10 16 3 9 6
31 6 50 0 40 17 45 26 9z m299 -5 c28 0 42 -31 26 -57 -9 -15 -10 -15 -11 -2
0 8 -16 23 -35 32 -33 16 -44 35 -28 51 4 3 11 0 15 -9 5 -8 20 -15 33 -15z
m-1195 -65 c0 -9 -9 -15 -21 -15 -18 0 -19 2 -9 15 7 8 16 15 21 15 5 0 9 -7
9 -15z m340 0 c0 -8 -9 -15 -20 -15 -17 0 -19 2 -8 15 17 19 28 19 28 0z m298
3 c-3 -7 -13 -15 -24 -17 -16 -3 -17 -1 -5 13 16 19 34 21 29 4z m532 -3 c10
-13 9 -15 -9 -15 -12 0 -21 6 -21 15 0 8 4 15 9 15 5 0 14 -7 21 -15z m-1520
-5 c0 -5 -7 -10 -16 -10 -8 0 -12 5 -9 10 3 6 10 10 16 10 5 0 9 -4 9 -10z
m450 0 c0 -5 -7 -10 -16 -10 -8 0 -12 5 -9 10 3 6 10 10 16 10 5 0 9 -4 9 -10z
m925 0 c3 -5 -1 -10 -10 -10 -9 0 -13 5 -10 10 3 6 8 10 10 10 2 0 7 -4 10
-10z m-1142 -147 c-5 -69 -10 -86 -22 -79 -5 3 -9 35 -10 71 -1 57 2 65 17 65
16 0 18 -7 15 -57z m53 -18 c0 -30 -3 -55 -7 -55 -4 0 -15 14 -23 32 -15 29
-15 33 -1 41 10 5 13 16 9 35 -6 23 -4 25 7 14 8 -8 14 -35 15 -67z m132 50
c3 -19 2 -19 -12 -1 -17 20 -46 15 -46 -8 0 -8 9 -18 20 -21 26 -8 26 -25 0
-25 -17 0 -20 -6 -18 -27 2 -19 -2 -28 -11 -28 -11 0 -15 16 -16 60 -1 33 1
64 3 68 2 4 20 7 40 5 28 -2 38 -8 40 -23z m112 -36 c17 -44 20 -63 12 -71 -8
-8 -14 -4 -21 15 -13 35 -38 34 -53 0 -10 -25 -12 -26 -16 -8 -2 10 1 21 7 23
6 2 11 10 11 19 0 10 6 12 20 8 24 -8 29 20 5 29 -13 4 -14 10 -5 26 6 11 12
20 14 20 2 0 14 -27 26 -61z m140 45 c0 -10 -6 -14 -15 -10 -12 4 -15 -5 -15
-49 0 -42 -3 -55 -15 -55 -11 0 -15 12 -15 51 0 41 -3 50 -15 46 -8 -4 -17 -2
-20 3 -12 19 7 30 51 30 34 0 44 -4 44 -16z m505 -54 c0 -42 -4 -65 -12 -67
-10 -4 -13 14 -13 67 0 53 3 71 13 68 8 -3 12 -26 12 -68z m133 24 c-2 23 2
41 9 43 8 3 10 -14 6 -59 -3 -35 -7 -65 -9 -66 -1 -2 -11 6 -21 18 -10 13 -30
36 -45 52 -29 30 -33 40 -21 52 4 4 25 -12 46 -36 l38 -43 -3 39z m-1148 20
c0 -14 -3 -14 -15 -4 -8 7 -15 14 -15 16 0 2 7 4 15 4 8 0 15 -7 15 -16z m669
-39 c25 -66 25 -65 7 -65 -7 0 -16 10 -19 21 -5 18 -11 20 -33 15 -22 -6 -25
-4 -20 9 3 9 6 20 6 23 0 4 4 0 10 -8 5 -8 12 -11 16 -7 4 3 2 13 -5 20 -12
15 -5 47 9 47 5 0 18 -25 29 -55z m141 33 c0 -19 -2 -20 -10 -8 -13 19 -13 30
0 30 6 0 10 -10 10 -22z m127 -35 c12 -31 20 -60 17 -64 -10 -16 -24 -9 -34
16 -5 14 -16 25 -24 25 -7 0 -17 -11 -20 -25 -6 -24 -26 -35 -26 -14 0 23 22
49 40 49 21 0 27 24 10 35 -5 3 -10 1 -10 -6 0 -7 -2 -10 -5 -8 -8 9 7 49 19
49 6 0 21 -25 33 -57z m-1015 0 c5 -56 4 -60 -17 -43 -15 13 -20 46 -9 74 11
29 22 16 26 -31z m824 -8 c1 -53 0 -54 -18 -38 -26 23 -22 93 6 93 7 0 11 -21
12 -55z m74 -20 c0 -27 -15 -41 -25 -25 -10 16 4 62 15 55 6 -3 10 -17 10 -30z
m-819 12 c-1 -4 -1 -16 -1 -27 0 -11 -4 -20 -9 -20 -11 0 -22 40 -15 52 7 10
26 6 25 -5z m257 -48 c-18 -12 -23 8 -6 28 12 15 13 15 16 -2 2 -10 -2 -21
-10 -26z m352 11 c0 -5 -4 -10 -10 -10 -5 0 -10 5 -10 10 0 6 5 10 10 10 6 0
10 -4 10 -10z m470 0 c0 -5 -4 -10 -10 -10 -5 0 -10 5 -10 10 0 6 5 10 10 10
6 0 10 -4 10 -10z m490 -544 c0 -3 -4 -8 -10 -11 -5 -3 -10 -1 -10 4 0 6 5 11
10 11 6 0 10 -2 10 -4z m-1125 -142 c17 -12 55 -29 85 -39 30 -10 61 -26 68
-37 7 -10 17 -16 21 -14 4 3 20 -5 36 -18 l28 -22 -64 11 c-35 6 -73 16 -84
21 -32 15 -601 12 -617 -3 -17 -18 -128 -17 -128 0 0 20 50 62 90 77 19 7 53
21 75 32 36 17 59 19 250 16 195 -3 212 -5 240 -24z m1103 -71 c23 -15 47 -41
54 -58 6 -16 14 -34 16 -39 4 -8 -4 -7 -53 8 -20 6 -51 18 -74 29 -15 8 -79
12 -168 12 -78 0 -143 1 -143 1 0 5 89 60 105 66 11 3 65 6 120 7 94 1 104 -1
143 -26z m-944 -82 c3 -4 19 -11 34 -14 45 -9 86 -50 126 -126 44 -84 47 -121
11 -121 -14 0 -40 -8 -59 -18 -47 -26 -206 -30 -230 -7 -14 15 -14 20 -1 52
20 49 20 186 0 203 -33 27 -17 40 49 40 36 0 67 -4 70 -9z m-516 -36 c-15 -14
-30 -36 -34 -49 -4 -19 -10 -22 -32 -18 -15 3 -31 8 -37 12 -5 4 -24 11 -40
14 -37 8 -95 42 -95 56 0 6 50 10 132 10 l133 0 -27 -25z m1416 7 c6 -5 28
-15 49 -22 50 -16 97 -56 97 -84 0 -12 -11 -33 -26 -46 -14 -14 -36 -35 -49
-48 -22 -22 -138 -53 -151 -40 -3 4 1 19 9 35 9 16 14 44 13 63 -2 19 -4 47
-5 61 0 14 -13 43 -27 64 l-25 38 51 -6 c29 -4 57 -10 64 -15z m-1939 -19 c20
1 30 -3 33 -15 3 -17 -35 -68 -52 -68 -16 0 -56 42 -56 60 0 23 21 42 35 30 6
-5 24 -8 40 -7z m640 -8 c0 -13 -8 -21 -22 -23 -19 -3 -23 1 -23 23 0 22 4 26
23 23 14 -2 22 -10 22 -23z m900 -12 c-3 -16 -14 -36 -22 -46 -10 -10 -17 -39
-19 -73 -3 -65 -10 -75 -43 -63 -18 7 -22 14 -16 32 4 12 10 36 13 54 6 29 74
123 89 123 3 0 2 -12 -2 -27z m103 -17 c-2 -13 -10 -21 -23 -21 -23 0 -33 34
-14 45 20 13 40 -1 37 -24z m-790 -28 c2 -20 -3 -31 -22 -43 -37 -24 -70 -16
-74 18 -5 40 14 59 57 55 31 -3 36 -7 39 -30z m978 -12 c7 -31 -11 -66 -36
-66 -33 0 -50 12 -50 35 0 52 74 78 86 31z m-1186 -31 c0 -8 -7 -15 -15 -15
-8 0 -15 7 -15 15 0 8 7 15 15 15 8 0 15 -7 15 -15z m-620 -10 c16 -20 30 -19
46 3 19 25 48 4 52 -38 3 -26 -3 -40 -29 -66 -18 -19 -37 -34 -43 -34 -6 0
-27 17 -48 37 -42 41 -51 85 -20 102 23 14 27 13 42 -4z m1617 -28 c-6 -20
-27 -19 -27 2 0 14 5 19 15 14 9 -3 14 -10 12 -16z m545 -504 c8 -17 8 -27 -3
-41 -33 -46 -99 -144 -99 -148 0 -6 -60 -59 -114 -100 -70 -53 -96 -56 -498
-52 -289 2 -368 6 -381 17 -10 8 -27 11 -41 7 -14 -3 -28 -2 -31 4 -3 5 -28
10 -55 10 -27 0 -51 4 -54 9 -3 4 -47 11 -98 14 -90 5 -161 18 -223 39 -16 6
-57 14 -90 19 -33 5 -67 13 -75 18 -9 5 -30 12 -48 16 -17 3 -35 12 -39 18 -5
7 -30 23 -58 37 -27 13 -57 29 -65 36 -28 22 -60 27 -60 10 0 -9 6 -16 14 -16
8 0 16 -4 18 -8 5 -13 97 -78 150 -107 25 -13 66 -27 90 -31 24 -4 48 -10 54
-15 6 -5 35 -11 65 -15 30 -3 59 -10 64 -14 14 -10 79 -24 175 -36 25 -3 49
-10 55 -15 13 -13 28 -11 19 2 -4 8 1 9 17 3 13 -4 40 -8 59 -9 19 0 42 -4 50
-7 8 -4 38 -9 65 -12 66 -7 83 -11 91 -19 12 -11 732 -8 739 3 3 6 26 15 51
21 25 6 51 21 59 32 12 17 17 18 30 7 12 -10 15 -10 15 4 0 9 5 16 11 16 5 0
7 4 4 10 -3 6 1 7 10 4 8 -4 22 -18 29 -32 17 -33 1 -79 -31 -87 -13 -3 -23
-11 -23 -19 0 -18 -81 -96 -100 -96 -9 0 -22 -6 -28 -12 -10 -10 -77 -14 -248
-16 l-236 -4 6 -36 c17 -111 27 -215 22 -228 -3 -9 -20 -14 -49 -14 -27 0 -49
-6 -57 -15 -7 -8 -24 -15 -37 -15 -23 0 -24 2 -18 40 5 27 3 46 -5 56 -15 17
-14 167 0 172 5 2 6 10 3 18 -3 8 1 14 9 14 15 0 48 35 48 51 0 6 -13 -2 -29
-17 -29 -27 -33 -28 -128 -26 -98 3 -163 11 -238 31 -22 6 -63 11 -91 11 -29
0 -65 7 -80 15 -16 8 -37 15 -46 15 -9 0 -19 4 -22 9 -3 4 -40 23 -83 41 -43
19 -94 47 -113 62 -19 15 -42 28 -51 28 -9 0 -19 7 -23 15 -3 8 -12 12 -21 9
-8 -4 -15 -1 -15 7 0 7 -3 10 -6 6 -3 -3 -37 10 -74 29 -38 19 -73 34 -79 34
-6 0 -11 5 -11 10 0 6 -7 10 -15 10 -8 0 -23 9 -32 20 -10 11 -21 20 -26 20
-5 0 -36 19 -68 43 -50 36 -58 47 -59 74 0 52 44 63 145 39 11 -3 39 -10 63
-16 23 -6 50 -14 60 -19 62 -33 145 -61 178 -61 22 0 57 -5 79 -11 22 -6 69
-15 104 -20 35 -4 68 -12 75 -17 29 -22 109 -41 196 -48 52 -3 100 -10 105
-15 15 -11 -3 -10 464 -16 403 -4 414 -4 435 16 12 11 43 30 69 41 28 13 53
32 59 46 6 13 15 24 20 24 4 0 8 6 8 14 0 7 13 40 30 72 16 32 27 67 24 76 -3
10 -2 23 2 30 5 8 11 2 17 -17 4 -17 13 -40 19 -52z m-777 -864 c4 -6 -2 -13
-14 -16 -11 -3 -23 -13 -26 -22 -3 -9 -20 -32 -37 -51 l-33 -34 -3 38 c-3 29
2 44 19 62 12 13 26 21 30 18 5 -3 17 0 26 5 23 13 30 13 38 0z m-275 -69 c0
-13 -28 -25 -38 -16 -3 4 0 11 8 16 20 13 30 12 30 0z m325 -14 c29 -24 30
-25 14 -53 -26 -43 -76 -73 -123 -73 -56 0 -69 14 -47 51 9 16 25 32 36 35 11
4 31 20 44 35 29 35 38 36 76 5z m365 -57 c0 -16 -20 -49 -29 -49 -16 0 -21
31 -8 45 14 17 37 19 37 4z m-42 -69 c3 -20 2 -22 -11 -11 -13 10 -15 9 -10
-8 4 -16 1 -21 -14 -21 -11 0 -23 -3 -27 -7 -13 -13 -35 -11 -29 3 3 8 11 14
18 14 7 0 19 14 27 30 15 36 41 36 46 0z m-252 -38 c-3 -5 -38 -12 -77 -15
-39 -3 -79 -12 -88 -20 -9 -8 -24 -17 -33 -20 -15 -5 -18 0 -18 28 l0 34 108
3 c117 3 116 3 108 -10z m154 -42 c0 -5 -2 -10 -4 -10 -3 0 -8 5 -11 10 -3 6
-1 10 4 10 6 0 11 -4 11 -10z m-238 -32 c-7 -7 -12 -8 -12 -2 0 14 12 26 19
19 2 -3 -1 -11 -7 -17z m194 -15 c-10 -10 -19 5 -10 18 6 11 8 11 12 0 2 -7 1
-15 -2 -18z m-236 13 c0 -3 -4 -8 -10 -11 -5 -3 -10 -1 -10 4 0 6 5 11 10 11
6 0 10 -2 10 -4z m10 -38 c0 -6 -3 -8 -7 -5 -3 4 -12 2 -20 -4 -10 -9 -13 -8
-13 5 0 9 8 16 20 16 11 0 20 -5 20 -12z m-43 -70 c-3 -8 -6 -5 -6 6 -1 11 2
17 5 13 3 -3 4 -12 1 -19z m134 9 c-1 -12 -15 -9 -19 4 -3 6 1 10 8 8 6 -3 11
-8 11 -12z"/>
<path d="M2841 3854 c0 -11 3 -14 6 -6 3 7 2 16 -1 19 -3 4 -6 -2 -5 -13z"/>
<path d="M2920 3571 c0 -5 5 -13 10 -16 6 -3 10 -2 10 4 0 5 -4 13 -10 16 -5
3 -10 2 -10 -4z"/>
<path d="M726 3125 c4 -8 8 -15 10 -15 2 0 4 7 4 15 0 8 -4 15 -10 15 -5 0 -7
-7 -4 -15z"/>
<path d="M3436 2771 c-10 -10 -14 -21 -9 -24 4 -3 16 6 26 19 21 28 8 32 -17
5z"/>
<path d="M3118 2753 c7 -3 16 -2 19 1 4 3 -2 6 -13 5 -11 0 -14 -3 -6 -6z"/>
<path d="M3475 2750 c3 -5 8 -10 11 -10 2 0 4 5 4 10 0 6 -5 10 -11 10 -5 0
-7 -4 -4 -10z"/>
<path d="M3082 2520 c0 -14 2 -19 5 -12 2 6 2 18 0 25 -3 6 -5 1 -5 -13z"/>
<path d="M3220 2424 c0 -8 5 -12 10 -9 6 3 10 10 10 16 0 5 -4 9 -10 9 -5 0
-10 -7 -10 -16z"/>
<path d="M3228 2383 c7 -3 16 -2 19 1 4 3 -2 6 -13 5 -11 0 -14 -3 -6 -6z"/>
<path d="M3097 2364 c-3 -4 1 -13 9 -21 19 -20 26 -13 10 9 -7 10 -16 15 -19
12z"/>
<path d="M3156 1915 c4 -8 8 -15 10 -15 2 0 4 7 4 15 0 8 -4 15 -10 15 -5 0
-7 -7 -4 -15z"/>
<path d="M3090 1560 c0 -5 5 -10 10 -10 6 0 10 5 10 10 0 6 -4 10 -10 10 -5 0
-10 -4 -10 -10z"/>
<path d="M3090 1480 c0 -5 5 -10 10 -10 6 0 10 5 10 10 0 6 -4 10 -10 10 -5 0
-10 -4 -10 -10z"/>
<path d="M2900 1070 c0 -5 5 -10 10 -10 6 0 10 5 10 10 0 6 -4 10 -10 10 -5 0
-10 -4 -10 -10z"/>
<path d="M2950 1069 c0 -5 5 -7 10 -4 6 3 10 8 10 11 0 2 -4 4 -10 4 -5 0 -10
-5 -10 -11z"/>
<path d="M3170 880 c0 -5 7 -10 15 -10 8 0 15 5 15 10 0 6 -7 10 -15 10 -8 0
-15 -4 -15 -10z"/>
</g>
</svg>
